# xmcd
#
# Track frame offsets: 
#        150
#        13971
#        30640
#        54513
#        68181
#        89070
#        108581
#        127091
#        141201
#        153628
#        166335
#        181455
#        200480
#        217304
#        231817
#        246261
#        260396
#        281539
#
# Disc length: 3884 seconds
#
# Revision: 0
# Processed by: cddbd v1.5.2PL0 Copyright (c) Steve Scherf et al.
# Submitted via: ExactAudioCopy v0.99pb3
#
DISCID=1a0f2a12
DTITLE=Various Artist - Barrelhouse Blues and Boogie Woogie Vol. 2
DYEAR=1998
DGENRE=Blues
TTITLE0=Champion Jack Dupree - I Hate To Be Alone
TTITLE1=Sunnyland Slim - Little And Low
TTITLE2=Little Brother Montgomery - Joe Louis Blues
TTITLE3=Memphis Slim - Mean Mistreatin' Woman
TTITLE4=Sunnyland Slim - Road House Boogie
TTITLE5=Champion Jack Dupree - T.V. Mama
TTITLE6=Sunnyland Slim - The Devile Is A Busy Man
TTITLE7=Memphis Slim - Medium And Rare
TTITLE8=Champion Jack Dupree - Old Woman Blues
TTITLE9=Eddie Boyd - Hurry Down, Sundown
TTITLE10=Speckled Red - Why Don't You Practice What You Preach
TTITLE11=Champion Jack Dupree - Daybreak Blues
TTITLE12=Champion Jack Dupree - Wedding Day Blues
TTITLE13=Sunnyland Slim - Boogie Woogie
TTITLE14=Champion Jack Dupree - Dirty Mistreater
TTITLE15=Memphis Slim - A Letter Home
TTITLE16=Champion Jack Dupree - Storyville Special
TTITLE17=Eddie Boyd - Boyd's Boogie Woogie
EXTD=
EXTT0=
EXTT1=
EXTT2=
EXTT3=
EXTT4=
EXTT5=
EXTT6=
EXTT7=
EXTT8=
EXTT9=
EXTT10=
EXTT11=
EXTT12=
EXTT13=
EXTT14=
EXTT15=
EXTT16=
EXTT17=
PLAYORDER=
